<svg width="792" height="280" viewBox="0 0 364 70">
	<title>
		PLAYA
	</title>
	<defs id="waves" />
	<g id="SvgjsG1007" fill="#270d0a" featurekey="root" />
	<g id="SvgjsG1008" fill="#c9487a" featurekey="symbol1" transform="matrix(0.746072868436417,0,0,0.746072868436417,7.688035640375743,0.17715473849751717)">
		<path d="M3.98,30.956l18.119,9.198c0.458,0.232,0.999,0.232,1.458,0l17.391-8.829l17.39,8.829c0.458,0.232,1,0.232,1.458,0  l17.394-8.829l17.394,8.829c0.232,0.118,0.482,0.175,0.729,0.175c0.586,0,1.152-0.323,1.436-0.882  c0.402-0.793,0.086-1.762-0.708-2.164l-18.121-9.199c-0.458-0.232-0.998-0.232-1.456,0l-17.394,8.829l-17.392-8.829  c-0.458-0.232-1-0.232-1.457,0l-17.392,8.829L5.438,28.084c-0.794-0.401-1.761-0.086-2.164,0.707  C2.871,29.584,3.187,30.553,3.98,30.956z" />
		<path d="M96.039,50.16l-18.121-9.198c-0.458-0.233-0.998-0.233-1.456,0l-17.394,8.828l-17.392-8.828c-0.458-0.233-1-0.233-1.457,0  l-17.392,8.828L5.438,40.962c-0.794-0.404-1.761-0.086-2.164,0.707c-0.403,0.792-0.086,1.761,0.707,2.164l18.119,9.197  c0.458,0.233,0.999,0.233,1.458,0l17.391-8.828l17.39,8.828c0.458,0.233,1,0.233,1.458,0l17.394-8.828l17.394,8.828  c0.232,0.119,0.482,0.175,0.729,0.175c0.586,0,1.152-0.321,1.436-0.881C97.149,51.53,96.833,50.562,96.039,50.16z" />
		<path d="M96.039,63.037l-18.121-9.198c-0.458-0.231-0.998-0.231-1.456,0l-17.394,8.829l-17.392-8.829c-0.458-0.231-1-0.231-1.457,0  l-17.392,8.829L5.438,53.839c-0.794-0.402-1.761-0.085-2.164,0.707c-0.403,0.793-0.086,1.763,0.707,2.164l18.119,9.199  c0.458,0.232,0.999,0.232,1.458,0l17.391-8.83l17.39,8.83c0.458,0.232,1,0.232,1.458,0l17.394-8.83l17.394,8.83  c0.232,0.118,0.482,0.175,0.729,0.175c0.586,0,1.152-0.323,1.436-0.882C97.149,64.409,96.833,63.439,96.039,63.037z" />
		<path d="M96.039,75.915l-18.121-9.198c-0.458-0.232-0.998-0.232-1.456,0l-17.394,8.829l-17.392-8.829c-0.458-0.232-1-0.232-1.457,0  l-17.392,8.829L5.438,66.717c-0.794-0.403-1.761-0.086-2.164,0.708c-0.403,0.792-0.086,1.761,0.707,2.163l18.119,9.198  c0.458,0.232,0.999,0.232,1.458,0l17.391-8.828l17.39,8.828c0.458,0.232,1,0.232,1.458,0l17.394-8.828l17.394,8.828  c0.232,0.118,0.482,0.175,0.729,0.175c0.586,0,1.152-0.323,1.436-0.882C97.149,77.286,96.833,76.318,96.039,75.915z" />
	</g>
	<g id="playa-title" fill="#ffffff" featurekey="text1" transform="matrix(3.994673646563484,0,0,3.994673646563484,99.99999904759558,-9.893474836078504)">
		<path d="M5.62 5 l1.44 0 c2.46 0 5.04 2.28 5.04 5.18 s-2.2 5.24 -5.04 5.24 c-0.78 0 -3.9 0.04 -3.9 0.04 l0 4.54 l-3.16 0 l0 -15 l5.62 0 z M7.02 12.64 c1.18 -0.24 2 -1.12 2 -2.46 s-0.82 -2.14 -2 -2.36 c-0.32 -0.06 -3.86 -0.02 -3.86 -0.02 l0 0.2 l0 0 l0 4.68 s3.38 0.06 3.86 -0.04 z M21.84 17.16 l0 2.84 l-8.68 0 l0 -15 l3.18 0 l0 12.16 l5.5 0 z M30.14 4.98 l7.3 15.02 l-2.98 0 l-0.94 -1.96 l-6.74 0 l-0.96 1.96 l-2.98 0 z M28 15.54 l4.3 0 l-2.16 -4.44 z M47.22 5 l3.34 0 l-4.44 7.2 l0 7.8 l-3.18 0 l0 -7.8 l-4.44 -7.2 l3.32 0 l2.7 4.1 z M58.86 4.98 l7.3 15.02 l-2.98 0 l-0.94 -1.96 l-6.74 0 l-0.96 1.96 l-2.98 0 z M56.72 15.54 l4.3 0 l-2.16 -4.44 z" />
	</g>
</svg>
